<?xml version="1.0" encoding="UTF-8" standalone="no"?>
<svg
        id="Ebene_1"
        data-name="Ebene 1"
        width="300.58395mm"
        height="85.586067mm"
        viewBox="0 0 852.0585 242.60261"
        version="1.1"
        xmlns="http://www.w3.org/2000/svg"
        xmlns:svg="http://www.w3.org/2000/svg">
    <defs
            id="defs491">
        <style
                id="style484">
            .cls-1 {
            fill: #fff;
            }

            .cls-2 {
            fill: url(#Unbenannter_Verlauf_2);
            }

            .cls-3 {
            fill: #333;
            }
        </style>
        <linearGradient
                id="Unbenannter_Verlauf_2"
                data-name="Unbenannter Verlauf 2"
                x1="139.12"
                y1="-4563.6099"
                x2="264.39001"
                y2="-4433.4399"
                gradientTransform="matrix(1,0,0,-1,-96.159241,-4381.5981)"
                gradientUnits="userSpaceOnUse">
            <stop
                    offset="0"
                    stop-color="#8fc046"
                    id="stop486" />
            <stop
                    offset="1"
                    stop-color="#1084c0"
                    id="stop488" />
        </linearGradient>
    </defs>
    <g
            id="g511"
            transform="translate(-96.159241,-107.25814)">
        <path
                class="cls-1"
                d="m 324.03,203.08 c 0.22,2.92 0.74,5.45 1.55,7.58 0.81,2.13 1.89,3.89 3.22,5.27 1.33,1.39 2.91,2.42 4.75,3.11 1.83,0.69 3.86,1.03 6.08,1.03 2.22,0 4.13,-0.26 5.74,-0.78 1.61,-0.52 3.01,-1.09 4.22,-1.72 1.2,-0.63 2.26,-1.2 3.16,-1.72 0.91,-0.52 1.79,-0.78 2.64,-0.78 1.15,0 2,0.43 2.55,1.28 l 3.94,4.99 c -1.52,1.78 -3.22,3.27 -5.11,4.47 -1.89,1.2 -3.86,2.16 -5.91,2.89 -2.05,0.73 -4.14,1.23 -6.27,1.53 -2.13,0.3 -4.19,0.44 -6.19,0.44 -3.96,0 -7.64,-0.66 -11.04,-1.97 -3.41,-1.31 -6.36,-3.26 -8.88,-5.83 -2.52,-2.57 -4.5,-5.75 -5.94,-9.55 -1.44,-3.79 -2.17,-8.19 -2.17,-13.18 0,-3.89 0.63,-7.54 1.89,-10.96 1.26,-3.42 3.06,-6.4 5.41,-8.94 2.35,-2.53 5.22,-4.54 8.6,-6.02 3.38,-1.48 7.21,-2.22 11.46,-2.22 3.59,0 6.9,0.57 9.93,1.72 3.03,1.15 5.64,2.82 7.83,5.02 2.18,2.2 3.89,4.9 5.13,8.1 1.24,3.2 1.86,6.85 1.86,10.96 0,2.07 -0.22,3.47 -0.67,4.19 -0.44,0.72 -1.29,1.08 -2.55,1.08 h -35.24 v 0 z m 26.14,-8.27 c 0,-1.78 -0.25,-3.45 -0.75,-5.02 -0.5,-1.57 -1.25,-2.95 -2.25,-4.13 -1,-1.18 -2.27,-2.12 -3.8,-2.8 -1.54,-0.68 -3.32,-1.03 -5.36,-1.03 -3.96,0 -7.08,1.13 -9.35,3.39 -2.28,2.26 -3.73,5.46 -4.36,9.6 h 25.87 z"
                id="path495" />
        <path
                class="cls-1"
                d="m 424.11,147.36 v 82.47 h -8.38 c -1.81,0 -2.96,-0.83 -3.44,-2.5 l -1.17,-5.49 c -2.29,2.63 -4.93,4.75 -7.91,6.38 -2.98,1.63 -6.45,2.44 -10.41,2.44 -3.11,0 -5.96,-0.65 -8.55,-1.94 -2.59,-1.29 -4.82,-3.17 -6.69,-5.63 -1.87,-2.46 -3.31,-5.5 -4.33,-9.13 -1.02,-3.63 -1.53,-7.77 -1.53,-12.43 0,-4.22 0.57,-8.14 1.72,-11.77 1.15,-3.63 2.79,-6.77 4.94,-9.44 2.15,-2.66 4.72,-4.75 7.71,-6.24 3,-1.5 6.36,-2.25 10.1,-2.25 3.18,0 5.9,0.5 8.16,1.5 2.26,1 4.27,2.35 6.05,4.05 v -30.03 h 13.73 z m -13.71,40.07 c -1.55,-1.89 -3.25,-3.22 -5.08,-4 -1.83,-0.78 -3.8,-1.17 -5.91,-1.17 -2.11,0 -3.94,0.39 -5.61,1.17 -1.67,0.78 -3.09,1.95 -4.27,3.52 -1.18,1.57 -2.09,3.57 -2.72,5.99 -0.63,2.42 -0.94,5.28 -0.94,8.57 0,3.29 0.27,6.15 0.8,8.46 0.54,2.31 1.3,4.2 2.3,5.66 1,1.46 2.22,2.52 3.66,3.16 1.44,0.65 3.05,0.97 4.83,0.97 2.85,0 5.27,-0.59 7.27,-1.78 2,-1.18 3.89,-2.87 5.66,-5.05 v -25.53 0.03 z"
                id="path497" />
        <path
                class="cls-1"
                d="m 488.59,172.89 v 56.94 h -8.38 c -1.81,0 -2.96,-0.83 -3.44,-2.5 l -0.94,-4.55 c -2.33,2.37 -4.9,4.28 -7.71,5.74 -2.81,1.46 -6.12,2.19 -9.93,2.19 -3.11,0 -5.86,-0.53 -8.24,-1.58 -2.39,-1.05 -4.39,-2.54 -6.02,-4.47 -1.63,-1.92 -2.86,-4.21 -3.69,-6.85 -0.83,-2.65 -1.25,-5.56 -1.25,-8.74 v -36.19 h 13.71 v 36.19 c 0,3.48 0.8,6.17 2.41,8.08 1.61,1.91 4.02,2.86 7.24,2.86 2.37,0 4.59,-0.53 6.66,-1.58 2.07,-1.05 4.03,-2.51 5.88,-4.36 v -41.18 h 13.71 z"
                id="path499" />
        <path
                class="cls-1"
                d="m 517.61,147.36 v 82.47 H 503.9 v -82.47 z"
                id="path501" />
        <path
                class="cls-1"
                d="m 582.16,172.89 v 56.94 h -8.38 c -1.81,0 -2.96,-0.83 -3.44,-2.5 l -0.94,-4.55 c -2.33,2.37 -4.9,4.28 -7.71,5.74 -2.81,1.46 -6.12,2.19 -9.93,2.19 -3.11,0 -5.86,-0.53 -8.24,-1.58 -2.39,-1.05 -4.39,-2.54 -6.02,-4.47 -1.63,-1.92 -2.86,-4.21 -3.69,-6.85 -0.83,-2.65 -1.25,-5.56 -1.25,-8.74 v -36.19 h 13.71 v 36.19 c 0,3.48 0.8,6.17 2.41,8.08 1.61,1.91 4.02,2.86 7.24,2.86 2.37,0 4.59,-0.53 6.66,-1.58 2.07,-1.05 4.03,-2.51 5.88,-4.36 v -41.18 h 13.71 z"
                id="path503" />
        <path
                class="cls-1"
                d="m 654.76,229.83 h -13.71 v -46.68 h -26.42 v 30.86 c 0,1.78 0.43,3.16 1.3,4.16 0.87,1 2.06,1.5 3.58,1.5 0.85,0 1.56,-0.1 2.14,-0.31 0.57,-0.2 1.07,-0.42 1.5,-0.64 0.42,-0.22 0.8,-0.43 1.14,-0.64 0.33,-0.2 0.67,-0.31 1,-0.31 0.41,0 0.74,0.1 1,0.31 0.26,0.2 0.54,0.51 0.83,0.92 l 4.11,6.66 c -2,1.67 -4.29,2.92 -6.88,3.77 -2.59,0.85 -5.27,1.28 -8.05,1.28 -4.96,0 -8.76,-1.4 -11.41,-4.19 -2.65,-2.79 -3.97,-6.65 -3.97,-11.57 v -31.8 h -5.83 c -0.74,0 -1.37,-0.24 -1.89,-0.72 -0.52,-0.48 -0.78,-1.2 -0.78,-2.16 v -5.44 l 9.16,-1.55 2.89,-15.48 c 0.18,-0.74 0.54,-1.31 1.05,-1.72 0.52,-0.41 1.18,-0.61 2,-0.61 h 7.1 v 17.93 h 40.13 v 56.44 0 z m 2.39,-73.76 c 0,1.18 -0.24,2.3 -0.72,3.36 -0.48,1.05 -1.12,1.97 -1.92,2.75 -0.8,0.78 -1.74,1.4 -2.83,1.86 -1.09,0.46 -2.25,0.69 -3.47,0.69 -1.22,0 -2.29,-0.23 -3.33,-0.69 -1.04,-0.46 -1.94,-1.08 -2.72,-1.86 -0.78,-0.78 -1.4,-1.69 -1.86,-2.75 -0.46,-1.05 -0.69,-2.17 -0.69,-3.36 0,-1.19 0.23,-2.36 0.69,-3.41 0.46,-1.05 1.08,-1.98 1.86,-2.77 0.78,-0.8 1.68,-1.42 2.72,-1.89 1.04,-0.46 2.14,-0.69 3.33,-0.69 1.19,0 2.38,0.23 3.47,0.69 1.09,0.46 2.04,1.09 2.83,1.89 0.79,0.8 1.43,1.72 1.92,2.77 0.48,1.05 0.72,2.19 0.72,3.41 z"
                id="path505" />
        <path
                class="cls-1"
                d="m 695.31,172 c 4.22,0 8.06,0.69 11.52,2.05 3.46,1.37 6.42,3.31 8.88,5.83 2.46,2.52 4.36,5.59 5.69,9.21 1.33,3.63 2,7.68 2,12.15 0,4.47 -0.67,8.58 -2,12.21 -1.33,3.63 -3.23,6.72 -5.69,9.27 -2.46,2.55 -5.42,4.51 -8.88,5.88 -3.46,1.37 -7.3,2.05 -11.52,2.05 -4.22,0 -8.12,-0.69 -11.6,-2.05 -3.48,-1.37 -6.45,-3.33 -8.91,-5.88 -2.46,-2.55 -4.37,-5.64 -5.72,-9.27 -1.35,-3.63 -2.03,-7.7 -2.03,-12.21 0,-4.51 0.67,-8.53 2.03,-12.15 1.35,-3.63 3.26,-6.7 5.72,-9.21 2.46,-2.52 5.43,-4.46 8.91,-5.83 3.48,-1.37 7.34,-2.05 11.6,-2.05 z m 0,48.12 c 4.74,0 8.24,-1.59 10.52,-4.77 2.28,-3.18 3.41,-7.84 3.41,-13.99 0,-6.15 -1.14,-10.82 -3.41,-14.04 -2.28,-3.22 -5.78,-4.83 -10.52,-4.83 -4.74,0 -8.37,1.62 -10.68,4.86 -2.31,3.24 -3.47,7.91 -3.47,14.01 0,6.1 1.16,10.76 3.47,13.96 2.31,3.2 5.87,4.8 10.68,4.8 z"
                id="path507" />
        <path
                class="cls-1"
                d="m 748.46,179.88 c 1.15,-1.15 2.36,-2.21 3.63,-3.19 1.28,-0.98 2.63,-1.81 4.05,-2.5 1.42,-0.68 2.95,-1.22 4.58,-1.61 1.63,-0.39 3.4,-0.58 5.33,-0.58 3.11,0 5.86,0.53 8.27,1.58 2.41,1.05 4.41,2.53 6.02,4.44 1.61,1.91 2.83,4.18 3.66,6.83 0.83,2.65 1.25,5.56 1.25,8.74 v 36.24 h -13.71 v -36.24 c 0,-3.48 -0.8,-6.17 -2.39,-8.08 -1.59,-1.91 -4.01,-2.86 -7.27,-2.86 -2.37,0 -4.59,0.54 -6.66,1.61 -2.07,1.07 -4.03,2.53 -5.88,4.38 v 41.18 h -13.71 v -56.94 h 8.38 c 1.78,0 2.94,0.83 3.5,2.5 l 0.94,4.5 z"
                id="path509" />
    </g>
    <path
            class="cls-2"
            d="m 136.23076,170.58186 c -1.29,0.05 -2.58,0.09 -3.85,0.09 -24.37,0 -46.650001,-8.91 -57.050001,-28.23 5.94,0.89 11.89,1.19 17.83,1.19 41.900001,0 79.640001,-17.53 79.640001,-52.890002 0,-29.42 -25.85,-51.7 -63.29,-51.7 -45.170001,0 -78.740001,32.39 -78.740001,81.420002 0,56.54 45.24,83.59 96.390001,84.07 l 9.09,-33.94 h -0.02 z m -28.52,-98.560002 c 14.56,0 27.34,8.62 27.34,20.21 0,16.340002 -24.37,23.470002 -49.330001,23.470002 -5.65,0 -10.99,-0.3 -16.34,-1.19 0.89,-29.710002 20.5,-42.490002 38.330001,-42.490002 z"
            id="path513"
            style="fill:url(#Unbenannter_Verlauf_2)" />
    <g
            id="g529"
            transform="translate(-96.159241,-107.25814)">
        <path
                class="cls-1"
                d="m 335.64,289.51 c 0.12,-0.31 0.24,-0.62 0.37,-0.93 0.13,-0.3 0.27,-0.59 0.43,-0.87 l 16.4,-29 c 0.16,-0.26 0.31,-0.41 0.47,-0.47 0.16,-0.06 0.37,-0.09 0.65,-0.09 h 2.09 v 41.74 h -2.66 v -35.58 c 0,-0.51 0.03,-1.05 0.09,-1.62 l -16.43,29.17 c -0.28,0.51 -0.67,0.77 -1.18,0.77 h -0.47 c -0.49,0 -0.89,-0.26 -1.18,-0.77 l -16.87,-29.2 c 0.06,0.57 0.09,1.12 0.09,1.65 v 35.58 h -2.63 v -41.74 h 2.06 c 0.28,0 0.5,0.03 0.66,0.09 0.17,0.06 0.33,0.22 0.49,0.47 l 16.84,29.03 c 0.29,0.55 0.55,1.14 0.77,1.77 z"
                id="path515" />
        <path
                class="cls-1"
                d="m 401.48,299.9 h -2.33 c -0.28,0 -0.5,-0.07 -0.68,-0.22 -0.18,-0.15 -0.31,-0.34 -0.41,-0.58 l -4.93,-12.12 h -20.5 l -4.9,12.12 c -0.08,0.22 -0.22,0.4 -0.41,0.56 -0.2,0.16 -0.43,0.24 -0.71,0.24 h -2.3 l 17.08,-41.74 h 3.01 z m -27.94,-15.16 h 18.7 l -8.53,-21.09 c -0.14,-0.33 -0.28,-0.71 -0.41,-1.14 -0.14,-0.42 -0.28,-0.87 -0.41,-1.34 -0.14,0.47 -0.28,0.92 -0.41,1.34 -0.14,0.42 -0.28,0.81 -0.41,1.17 z"
                id="path517" />
        <path
                class="cls-1"
                d="m 413.28,299.9 h -3.04 v -41.74 h 3.04 z"
                id="path519" />
        <path
                class="cls-1"
                d="m 430.2,297.33 h 19.79 v 2.57 h -22.8 v -41.74 h 3.01 v 39.18 z"
                id="path521" />
        <path
                class="cls-1"
                d="m 486.46,292.87 c 0.2,0 0.36,0.07 0.5,0.21 l 1.18,1.27 c -0.87,0.92 -1.81,1.75 -2.83,2.49 -1.02,0.74 -2.14,1.37 -3.35,1.89 -1.21,0.52 -2.54,0.92 -3.98,1.21 -1.45,0.29 -3.03,0.43 -4.76,0.43 -2.89,0 -5.54,-0.51 -7.95,-1.52 -2.41,-1.01 -4.47,-2.45 -6.2,-4.31 -1.73,-1.86 -3.06,-4.1 -4.03,-6.74 -0.96,-2.64 -1.45,-5.57 -1.45,-8.79 0,-3.22 0.5,-6.06 1.49,-8.67 0.99,-2.62 2.39,-4.86 4.19,-6.74 1.8,-1.88 3.95,-3.33 6.46,-4.37 2.51,-1.03 5.28,-1.55 8.3,-1.55 1.51,0 2.9,0.11 4.16,0.34 1.26,0.23 2.43,0.55 3.53,0.97 1.1,0.42 2.12,0.95 3.08,1.58 0.96,0.63 1.91,1.36 2.83,2.18 l -0.92,1.33 c -0.16,0.24 -0.4,0.35 -0.74,0.35 -0.18,0 -0.4,-0.1 -0.68,-0.31 -0.28,-0.21 -0.62,-0.46 -1.05,-0.77 -0.42,-0.3 -0.93,-0.64 -1.53,-1 -0.6,-0.36 -1.31,-0.7 -2.14,-1 -0.83,-0.3 -1.78,-0.56 -2.86,-0.77 -1.08,-0.21 -2.31,-0.31 -3.69,-0.31 -2.54,0 -4.87,0.44 -6.99,1.31 -2.12,0.87 -3.95,2.12 -5.49,3.75 -1.53,1.62 -2.73,3.59 -3.58,5.9 -0.86,2.31 -1.28,4.9 -1.28,7.77 0,2.87 0.42,5.58 1.27,7.91 0.85,2.32 2.02,4.28 3.51,5.89 1.49,1.6 3.26,2.83 5.29,3.69 2.04,0.86 4.24,1.28 6.62,1.28 1.49,0 2.83,-0.1 4,-0.29 1.17,-0.19 2.25,-0.49 3.23,-0.88 0.98,-0.39 1.9,-0.88 2.74,-1.45 0.85,-0.57 1.68,-1.24 2.51,-2.01 0.1,-0.08 0.19,-0.14 0.28,-0.19 0.09,-0.05 0.19,-0.07 0.31,-0.07 z"
                id="path523" />
        <path
                class="cls-1"
                d="m 533.93,279.01 c 0,3.23 -0.48,6.15 -1.45,8.78 -0.96,2.62 -2.32,4.87 -4.07,6.73 -1.75,1.86 -3.85,3.29 -6.28,4.31 -2.44,1.01 -5.14,1.52 -8.11,1.52 -2.97,0 -5.62,-0.51 -8.05,-1.52 -2.44,-1.01 -4.53,-2.45 -6.28,-4.31 -1.75,-1.86 -3.11,-4.1 -4.09,-6.73 -0.97,-2.63 -1.46,-5.55 -1.46,-8.78 0,-3.23 0.49,-6.12 1.46,-8.75 0.97,-2.62 2.33,-4.87 4.09,-6.73 1.75,-1.86 3.84,-3.3 6.28,-4.32 2.44,-1.02 5.12,-1.53 8.05,-1.53 2.93,0 5.67,0.51 8.11,1.52 2.44,1.01 4.53,2.45 6.28,4.32 1.75,1.87 3.11,4.12 4.07,6.74 0.96,2.63 1.45,5.54 1.45,8.75 z m -3.13,0 c 0,-2.91 -0.4,-5.53 -1.21,-7.85 -0.81,-2.32 -1.94,-4.29 -3.41,-5.9 -1.47,-1.61 -3.23,-2.85 -5.3,-3.7 -2.06,-0.86 -4.36,-1.28 -6.87,-1.28 -2.51,0 -4.75,0.43 -6.8,1.28 -2.06,0.86 -3.83,2.09 -5.31,3.7 -1.49,1.61 -2.64,3.58 -3.45,5.9 -0.82,2.32 -1.22,4.94 -1.22,7.85 0,2.91 0.41,5.55 1.22,7.86 0.82,2.31 1.97,4.27 3.45,5.89 1.48,1.61 3.25,2.84 5.31,3.69 2.05,0.85 4.32,1.27 6.8,1.27 2.48,0 4.81,-0.42 6.87,-1.27 2.07,-0.85 3.83,-2.08 5.3,-3.69 1.46,-1.61 2.6,-3.57 3.41,-5.89 0.81,-2.31 1.21,-4.93 1.21,-7.86 z"
                id="path525" />
        <path
                class="cls-1"
                d="m 538.71,258.15 h 2.51 c 0.57,0 0.93,0.27 1.09,0.8 l 10.53,34.31 c 0.12,0.39 0.22,0.82 0.31,1.27 0.09,0.45 0.18,0.92 0.28,1.42 0.1,-0.49 0.2,-0.96 0.29,-1.42 0.1,-0.45 0.22,-0.88 0.35,-1.27 l 11.8,-34.31 c 0.08,-0.22 0.22,-0.4 0.41,-0.56 0.2,-0.16 0.43,-0.24 0.71,-0.24 h 0.83 c 0.27,0 0.5,0.07 0.68,0.22 0.18,0.15 0.31,0.34 0.41,0.58 l 11.8,34.31 c 0.14,0.39 0.26,0.81 0.37,1.24 0.11,0.43 0.21,0.9 0.31,1.39 0.1,-0.47 0.19,-0.93 0.27,-1.37 0.08,-0.44 0.18,-0.86 0.29,-1.25 l 10.53,-34.31 c 0.06,-0.22 0.19,-0.4 0.4,-0.56 0.21,-0.16 0.45,-0.24 0.72,-0.24 h 2.3 l -13.13,41.74 h -2.71 l -12.33,-36.23 c -0.16,-0.47 -0.29,-0.97 -0.41,-1.5 -0.12,0.53 -0.26,1.03 -0.41,1.5 l -12.36,36.23 h -2.68 l -13.16,-41.74 z"
                id="path527" />
    </g>
    <g
            id="g537"
            transform="translate(-96.159241,-107.25814)">
        <path
                class="cls-1"
                d="m 803.26,225.82 c 0,-0.7 0.13,-1.37 0.39,-2 0.26,-0.63 0.61,-1.17 1.07,-1.64 0.46,-0.46 0.99,-0.83 1.6,-1.11 0.61,-0.28 1.28,-0.42 2.01,-0.42 0.69,0 1.36,0.14 1.98,0.42 0.62,0.28 1.16,0.65 1.62,1.11 0.46,0.46 0.82,1.01 1.1,1.64 0.28,0.63 0.42,1.3 0.42,2 0,0.74 -0.14,1.42 -0.42,2.03 -0.28,0.61 -0.64,1.15 -1.1,1.61 -0.46,0.46 -1,0.82 -1.62,1.08 -0.62,0.26 -1.29,0.39 -1.98,0.39 -1.43,0 -2.64,-0.49 -3.61,-1.47 -0.97,-0.98 -1.46,-2.19 -1.46,-3.64 z"
                id="path531" />
        <path
                class="cls-1"
                d="m 840.59,155.83 c 0,0.67 -0.14,1.29 -0.42,1.86 -0.28,0.57 -0.63,1.08 -1.07,1.53 -0.44,0.44 -0.95,0.8 -1.54,1.05 -0.58,0.26 -1.21,0.39 -1.87,0.39 -0.66,0 -1.29,-0.13 -1.87,-0.39 -0.58,-0.26 -1.1,-0.61 -1.54,-1.05 -0.44,-0.44 -0.79,-0.95 -1.04,-1.53 -0.26,-0.57 -0.39,-1.19 -0.39,-1.86 0,-0.67 0.13,-1.3 0.39,-1.92 0.26,-0.62 0.6,-1.14 1.04,-1.58 0.44,-0.44 0.95,-0.8 1.54,-1.05 0.58,-0.26 1.21,-0.39 1.87,-0.39 0.66,0 1.28,0.13 1.87,0.39 0.58,0.26 1.1,0.61 1.54,1.05 0.44,0.44 0.79,0.97 1.07,1.58 0.28,0.61 0.42,1.25 0.42,1.92 z m -2.25,19.04 v 55.22 h -5.22 v -55.22 z"
                id="path533" />
        <path
                class="cls-1"
                d="m 878.09,173.98 c 3.92,0 7.43,0.68 10.53,2.03 3.1,1.35 5.71,3.27 7.84,5.74 2.13,2.48 3.75,5.47 4.86,8.96 1.12,3.5 1.67,7.41 1.67,11.74 0,4.33 -0.55,8.23 -1.67,11.71 -1.12,3.48 -2.74,6.46 -4.86,8.94 -2.13,2.48 -4.74,4.38 -7.84,5.72 -3.1,1.33 -6.61,2 -10.53,2 -3.92,0 -7.43,-0.67 -10.53,-2 -3.1,-1.33 -5.72,-3.24 -7.87,-5.72 -2.14,-2.48 -3.78,-5.46 -4.89,-8.94 -1.12,-3.48 -1.67,-7.38 -1.67,-11.71 0,-4.33 0.55,-8.24 1.67,-11.74 1.12,-3.5 2.75,-6.48 4.89,-8.96 2.14,-2.48 4.77,-4.39 7.87,-5.74 3.1,-1.35 6.61,-2.03 10.53,-2.03 z m 0,52.67 c 3.26,0 6.11,-0.56 8.55,-1.69 2.44,-1.13 4.47,-2.75 6.1,-4.86 1.63,-2.11 2.85,-4.65 3.66,-7.63 0.8,-2.98 1.21,-6.32 1.21,-10.02 0,-3.7 -0.41,-6.99 -1.21,-9.99 -0.8,-3 -2.02,-5.56 -3.66,-7.69 -1.63,-2.13 -3.67,-3.76 -6.1,-4.91 -2.44,-1.15 -5.29,-1.72 -8.55,-1.72 -3.26,0 -6.11,0.57 -8.55,1.72 -2.44,1.15 -4.47,2.78 -6.1,4.91 -1.63,2.13 -2.86,4.69 -3.69,7.69 -0.82,3 -1.24,6.33 -1.24,9.99 0,3.66 0.42,7.04 1.24,10.02 0.82,2.98 2.05,5.52 3.69,7.63 1.63,2.11 3.67,3.73 6.1,4.86 2.44,1.13 5.29,1.69 8.55,1.69 z"
                id="path535" />
    </g>
</svg>
